<svg xmlns="http://www.w3.org/2000/svg" xmlns:xlink="http://www.w3.org/1999/xlink" viewBox="0 0 750 500"><defs><style>.cls-1{isolation:isolate;}.cls-2{fill:#fff;}.cls-3{fill:#abdaf7;}.cls-4{fill:#70b2dd;}.cls-5,.cls-6{fill:#4e8fb7;}.cls-6{opacity:0.35;mix-blend-mode:multiply;}.cls-7{fill:#f49187;}.cls-8{fill:#feb19e;}.cls-9{fill:url(#linear-gradient);}.cls-10{fill:#d9ed62;}.cls-11{fill:#8faa1d;opacity:0.6;}.cls-12{fill:#ff856a;}.cls-13{fill:url(#linear-gradient-2);}.cls-14{fill:#ffd6bb;}.cls-15{fill:#2256b2;}.cls-16{fill:#3471ea;}.cls-17{fill:#82b0f9;}.cls-18{fill:#ead8b7;}.cls-19{fill:url(#linear-gradient-3);}.cls-20{fill:#fff6e3;}.cls-21{fill:url(#linear-gradient-4);}.cls-22,.cls-23{fill:#f6613a;}.cls-22{opacity:0.5;}.cls-23{opacity:0.22;}</style><linearGradient id="linear-gradient" x1="233.81" y1="341.65" x2="209.41" y2="135.65" gradientTransform="matrix(-1, 0, 0, 1, 723.81, 0)" gradientUnits="userSpaceOnUse"><stop offset="0" stop-color="#98be19"/><stop offset="1" stop-color="#b0d128"/></linearGradient><linearGradient id="linear-gradient-2" x1="187.02" y1="51.83" x2="278.94" y2="51.83" gradientTransform="matrix(-1, 0, 0, 1, 723.81, 0)" gradientUnits="userSpaceOnUse"><stop offset="0" stop-color="#3f2323"/><stop offset="1" stop-color="#5e3434"/></linearGradient><linearGradient id="linear-gradient-3" x1="438.22" y1="412.32" x2="454.32" y2="350.61" gradientTransform="matrix(-1, 0, 0, 1, 723.81, 0)" gradientUnits="userSpaceOnUse"><stop offset="0" stop-color="#f79239"/><stop offset="1" stop-color="#f7c759"/></linearGradient><linearGradient id="linear-gradient-4" x1="427.72" y1="402.88" x2="422.33" y2="372.75" xlink:href="#linear-gradient-3"/></defs><title>image1</title><g class="cls-1"><g id="BACKGROUND"><rect class="cls-2" width="750" height="500"/></g><g id="OBJECTS"><ellipse class="cls-3" cx="370.1" cy="407.02" rx="361.1" ry="54.98"/><ellipse class="cls-4" cx="370.1" cy="399.34" rx="274.64" ry="34.14"/><ellipse class="cls-5" cx="370.1" cy="394.27" rx="187.2" ry="14.08"/><path class="cls-6" d="M98.64,388.89c0-13.08,110.93-23.69,247.78-23.69S594.2,375.81,594.2,388.89c0,1.07-.75,2.11-2.17,3.14,6.11-.38,12.55-.59,19.22-.59,38.14,0,69.06,6.64,69.06,14.83s-30.92,14.82-69.06,14.82-69.06-6.63-69.06-14.82a4.42,4.42,0,0,1,1.45-3c-34.16,4.29-83.25,7.43-139.87,8.71,1.66,1.37,2.55,2.78,2.55,4.23,0,12.1-60.66,21.91-135.48,21.91s-135.47-9.81-135.47-21.91c0-4.42,8.11-8.52,22-12C120.75,400.08,98.64,394.73,98.64,388.89Z"/><polygon class="cls-7" points="417.37 180.97 392.12 218.01 421.68 254.81 469.33 207.14 417.37 180.97"/><path class="cls-8" d="M604.26,234.79l31.43,143.06S669.75,393.7,669,403.21s-43.45-.91-48.53,0-9.81,10.41-15.87,10.41,8-33.5,8-33.5L563.67,254.81Z"/><path class="cls-9" d="M399.27,269.17c67.31,39.39,94.72,111,94.72,111,17.29-10.51,31.52-59.33,40.42-98.46,6.41-28.25,10.08-51.43,10.08-51.43l3.64,11.66,1.92,6.14,2.66,8.48c23.88,0,50.63-19.08,51.81-19.54.33-.13-1.27-7.14-4.11-17.63-7.12-26.25-12.64-52.55-23.82-69.72-7.68-11.76-19.8-18.93-30.13-23.14a89.69,89.69,0,0,0-19.47-5.6l-25.51,6.55a32.91,32.91,0,0,0-17.78-3.51c-28.58,2.12-58.41,36.79-71.09,53.31-4,5.24-6.29,8.64-6.29,8.64,2.32,8.77,25.6,39.28,25.6,39.28Z"/><path class="cls-10" d="M548.13,241.89l4.58,14.62c23.88,0,50.64-19.07,51.81-19.53.33-.14-1.27-7.15-4.11-17.63C566.31,243.83,548.13,241.89,548.13,241.89Z"/><path class="cls-11" d="M534.41,281.66c6.41-28.25,10.08-51.43,10.08-51.43l3.64,11.66,1.92,6.14L530,182.8S512.45,246.4,534.41,281.66Z"/><path class="cls-10" d="M406.32,185.87c2.32,8.77,25.6,39.28,25.6,39.28L439.08,213c-15.95-14.1-23.51-28.78-26.47-35.81C408.62,182.47,406.32,185.87,406.32,185.87Z"/><path class="cls-11" d="M417.25,204.84c.64.93,14.6,20.43,14.67,20.32.4-.82,7.93-12.45,10.82-19.54a305.2,305.2,0,0,0,17.17-58.06C444.28,176.35,435.57,195.59,417.25,204.84Z"/><path class="cls-10" d="M492.82,172.28c25.13,9.81,45.65-28.14,53.64-45.8a89.69,89.69,0,0,0-19.47-5.6l-25.51,6.55a32.91,32.91,0,0,0-17.78-3.51C477.22,139.82,471.66,164,492.82,172.28Z"/><path class="cls-8" d="M497.12,164.12c19,4.51,35.63-34.88,35.63-34.88C529,114.76,527,90.36,527,90.36l0,0h0c-1.48.59-40.75,17.06-37.7,25.94,3.13,9.08,1.53,21.52,1.53,21.52a36.52,36.52,0,0,0-3.08,7.34C485.75,151.92,485.38,161.33,497.12,164.12Z"/><path class="cls-12" d="M487.75,145.19c11.34,1.19,37.18-2,39.25-54.8-1.48.59-40.75,17.06-37.7,25.94,3.13,9.08,1.53,21.52,1.53,21.52A36.52,36.52,0,0,0,487.75,145.19Z"/><path class="cls-13" d="M530.4,77s9.59-18.34,5.29-30.79-12.33-10.42-12.33-10.42-1.77-18.79-16.84-22-25.63,9.74-33.07,20.15-24.66,6.53-25.05,11.19,8.8,9.19,8.8,9.19-12.33,4.07-12.33,11.77,12.14,7.25,19,6.79c0,0-.59,12.91,12.92,16.53s49.12-4.08,49.12-4.08Z"/><path class="cls-8" d="M471.39,74s5.29,51.63,19.67,56,29-15.28,32.49-22.75S527.07,89,527.07,89s6.07-6.12,4.12-13.81-11.94-6.8-9.2,5.66c0,0-12.53-8.83-10-24.91,0,0-13.11,13.13-18.39,11.32s-.2-10.19-.2-10.19S482.45,72,471.39,74Z"/><path class="cls-8" d="M141.75,385.8c1.72-1.25,7.19-2.52,25.78-8.4s45.6-3.62,45.6-3.62l-5.28-36.23s-28.77,3.85-40.32,2S142.88,331.08,139,335,141.75,385.8,141.75,385.8Z"/><path class="cls-14" d="M143.46,334.38c4.5,3.33,6.07,21.51,3.33,33.74s-1.37,18.11-6.27,17.66-5.67-19.93-4.89-33.51S138.57,330.76,143.46,334.38Z"/><path class="cls-15" d="M452.6,314.12s-58-131.43-92.09-133.7S309,195.27,303,217.84c-8.83,32.92-21.12,106.58-21.12,106.58l56.74,5,8.22-58,20.42,54.34Z"/><path class="cls-16" d="M452.6,314.12l-264.52,16v56.37s246,49.83,305.91-6.33C494,380.12,473.41,335.29,452.6,314.12Z"/><path class="cls-17" d="M390.27,391.44c85.72,0,92-16,92.29-16.73a1.42,1.42,0,0,0-.68-1.75,1.13,1.13,0,0,0-1.49.73c-.21.44-10.44,19.36-128.45,14.12-121.44-5.36-163.28-12.14-163.69-12.21a1.23,1.23,0,0,0-1.33,1.15,1.34,1.34,0,0,0,1,1.54c.41.07,42.37,6.86,163.93,12.24C366.16,391.16,378.91,391.44,390.27,391.44Z"/><path class="cls-8" d="M368.12,182.78a9.88,9.88,0,0,1-10.74,3.53s-17.81,10.19-27.6,6.57-4.11-15.4,8.22-22.19S380.23,172.69,368.12,182.78Z"/><path class="cls-18" d="M346.72,357.9s-6.76,42.37,8.9,51.65c0,0,4.5-2.49,6.46,7.24H341s-15.76-19.91-13.8-34.63Z"/><path class="cls-19" d="M196.49,421.09c16.06,15.41,38.17,4.08,50.71-5.43,8.92-6.79,22.14-6.08,35.37-5.7a132.09,132.09,0,0,0,15.71-.19c17.61-1.58,21.14-13.34,21.14-13.34s3.9,1.35,6.46,10.4a28.58,28.58,0,0,0,9.77,14.26h17c.59-8.61-6.45-7.93-10.56-10s-15.06-21.76,2.16-48.9.3-54.23-2.85-61.92a24.07,24.07,0,0,1-1.12-3.53c-1.6-6.71-.54-13.45,0-14.59.71-1.36,3.41-3.29,3.71-5.68a2.89,2.89,0,0,0-1.71-3.12c1.1-3.07-.12-4.54-.12-4.54s.4-.57-.84-2.28-2.3-2.15-3.48-.68-4.2,2.85-4.2,2.85c-10-5.89-19.47,5.87-19.47,5.87-2.84,1.49-10.88-4-12.73-.33-1.11,2.15,5.59,11.2,5.59,11.2.37,6.79,4.69,17.44,4.69,17.44-2.34,10-2.34,16.3-22.71,34s-29.94,33.07-37,51.84-20.17,28.23-38,28.53c-12.71.24-17.41-10.41-8.81-19.46s7.7-16.46,2.93-17S180.45,405.69,196.49,421.09Z"/><path class="cls-20" d="M281.86,409.55l.71.41a132.09,132.09,0,0,0,15.71-.19c17.61-1.58,21.14-13.34,21.14-13.34s3.9,1.35,6.46,10.4a28.58,28.58,0,0,0,9.77,14.26h17c.59-8.61-6.45-7.93-10.56-10s-15.06-21.76,2.16-48.9.3-54.23-2.85-61.92c-.47-1.17-7.72,10.87-5.56,23,3.9,21.95-.8,39.17-17.83,45.5S274.82,390.07,281.86,409.55Z"/><path class="cls-20" d="M278.69,421.09h44.44c1.92-7.3-6-10.27-10.9-11.38a3.46,3.46,0,0,1-.47-.11l-.28-.05a25.07,25.07,0,0,0-2.84-.46l.33-.19L278.46,401h0C261.9,417.86,278.69,421.09,278.69,421.09Z"/><path class="cls-21" d="M279.68,399.77c-.42.4-.85.81-1.22,1.22L309,408.9a22.9,22.9,0,0,0,10.78-17.42c.77-7.25-1.69-15.38-8.95-22.22-10.71-10.14-22.36-.74-27.69,5.68C271.81,388.49,279.68,399.77,279.68,399.77Z"/><path class="cls-22" d="M309,408.9l-.33.19a25.07,25.07,0,0,1,2.84.46Z"/><path class="cls-23" d="M295,405.26l14,3.64a22.9,22.9,0,0,0,10.78-17.42C308,401.23,296,405.26,295,405.26Z"/></g></g></svg>