<svg id="Capa_1" data-name="Capa 1" xmlns="http://www.w3.org/2000/svg" viewBox="0 0 427.33 286.34"><defs><style>.cls-1{fill:#d0f8f9;}.cls-2{fill:#7ca2a1;}.cls-3{fill:#ab215d;}.cls-4{fill:#c895a9;}.cls-5{fill:#edbb95;}.cls-6{fill:#f8e7da;}.cls-7{fill:#512b58;}.cls-8{fill:#98809d;}.cls-9{fill:#db346e;}.cls-10{fill:#1a0b23;}.cls-11{fill:#e8a294;}.cls-12{fill:#311e19;}.cls-13{fill:#c69e7f;}.cls-14{fill:#d08e81;}.cls-15{fill:#b86657;}.cls-16{fill:#fff;}.cls-17{fill:#c69d7f;}</style></defs><title>image2</title><g id="OBJECTS"><path class="cls-1" d="M423.31,362.9a45.61,45.61,0,0,1,9.76-10,24.81,24.81,0,0,1,13-4.8c3.26-.15,7.05.88,8.33,3.88,1.14,2.65-.22,5.83-2.4,7.72s-5,2.81-7.7,3.8c-7.6,2.77-15.06,6.52-20.58,12.43-6,6.37-7.86,13.7-7.29,22.15-3.64.5-4.95-.55-4.87-4.14a45.07,45.07,0,0,1,1.68-11A61,61,0,0,1,423.31,362.9Z" transform="translate(-32.87 -129.24)"/><path class="cls-1" d="M446.85,353.84c-7.11.72-13.39,4.74-18.16,9.91a57.5,57.5,0,0,0-6.68,9,86.86,86.86,0,0,0-5.45,10.09,28.65,28.65,0,0,0-2.87,12.36c0,.66,1.05.66,1,0A26.42,26.42,0,0,1,417,384.37a79.34,79.34,0,0,1,5.1-9.81c3.62-6.1,8-12,14.06-15.84a25,25,0,0,1,10.71-3.88C447.51,354.78,447.51,353.75,446.85,353.84Z" transform="translate(-32.87 -129.24)"/><path class="cls-2" d="M396.23,395c-.28-7.48-.79-15.07-3.27-22.13S385.77,359.25,379,356c-5.76-2.74-12.5-2.86-18.24-5.64-1.86-.89-3.75-2.31-4-4.35-.33-2.38,1.63-4.46,3.67-5.74a20.26,20.26,0,0,1,10-3.07c7.46-.27,14.64,3.76,19.46,9.46s7.52,12.92,9.15,20.2a82.74,82.74,0,0,1,1.29,28.88C399.2,395.43,397.27,395.38,396.23,395Z" transform="translate(-32.87 -129.24)"/><path class="cls-2" d="M412.28,400.42a68.48,68.48,0,0,1,26.23-58.27c4.58-3.5,9.58-6.39,14.39-9.57,2.69-1.77,5.44-3.79,6.67-6.77,1.58-3.81.08-8.48-3.06-11.16a14.11,14.11,0,0,0-11.66-2.71A23.83,23.83,0,0,0,434,317.57c-5.52,4.75-9.51,11.09-12.41,17.78s-4.76,13.76-6.62,20.81l-11.07,42C406.51,398.76,409.66,399.78,412.28,400.42Z" transform="translate(-32.87 -129.24)"/><path class="cls-1" d="M401.35,340.14c-3.08-6.81-6.94-13.57-13-18s-14.78-5.77-21-1.61c-2.06,1.38-3.83,3.49-4,6s1.44,5.07,3.55,6.62a25.26,25.26,0,0,0,7.14,3.17,46.67,46.67,0,0,1,12.56,5.84c8.28,5.91,12.56,16.07,14.15,26.11,1.14,7.16,1.11,14.43,1.17,21.66,0,3.34-.64,7.9.5,11.08a4.19,4.19,0,0,0,5.31,2.63,4.29,4.29,0,0,0,.89-.43c4.75-3.36,3.66-12.92,3.5-17.82a115.74,115.74,0,0,0-2.85-21.84A123.41,123.41,0,0,0,401.35,340.14Z" transform="translate(-32.87 -129.24)"/><path class="cls-1" d="M392.91,376.21c-2.73-6.09-7.65-11.55-14.09-13.3a10.17,10.17,0,0,0-4.87-.25,5.54,5.54,0,0,0-3.79,2.88,5.69,5.69,0,0,0,.87,5.64,11.45,11.45,0,0,0,4.81,3.45c1.84.8,3.76,1.37,5.56,2.23a19.36,19.36,0,0,1,10.38,13.08,32.34,32.34,0,0,0,.75,3.38c.51,1.54,1.64,3.19,3.41,3.3s1.37-1.59,1.22-2.73a87.74,87.74,0,0,0-2.1-11.57A40.27,40.27,0,0,0,392.91,376.21Z" transform="translate(-32.87 -129.24)"/><path class="cls-1" d="M382.88,370.46a31.47,31.47,0,0,0-6.21-3.66c-.6-.26-1.12.62-.52.89A30,30,0,0,1,394,393c0,.65,1.07.66,1,0A31.2,31.2,0,0,0,382.88,370.46Z" transform="translate(-32.87 -129.24)"/><path class="cls-1" d="M399.45,394c-1.05-8.52-2.1-17.14-5-25.29-2.55-7.28-6.57-14.13-12.56-19.1a37.15,37.15,0,0,0-11-6.29c-.62-.22-.89.77-.27,1a35.7,35.7,0,0,1,17.3,13.45c4.46,6.52,6.87,14.17,8.37,21.86.92,4.76,1.52,9.57,2.11,14.38C398.51,394.65,399.51,394.66,399.45,394Z" transform="translate(-32.87 -129.24)"/><path class="cls-1" d="M406.67,375.77a72.49,72.49,0,0,0-7.75-28.93,69.12,69.12,0,0,0-8.25-12.61c-3.18-3.87-6.9-7.53-11.5-9.66-.57-.26-1.15-.5-1.73-.71s-.89.76-.27,1c4.69,1.74,8.51,5.16,11.74,8.88a67.17,67.17,0,0,1,8.32,12.1A71.35,71.35,0,0,1,405.51,374a68.45,68.45,0,0,1-.4,14.73c-.09.6-.18,1.19-.28,1.78s.89.93,1,.28A69.63,69.63,0,0,0,406.67,375.77Z" transform="translate(-32.87 -129.24)"/><path class="cls-1" d="M448.71,320.64a88.12,88.12,0,0,0-23.58,23.84A86.37,86.37,0,0,0,417,359.84a88.44,88.44,0,0,0-6.54,36.46c0,.77.06,1.54.11,2.32a.5.5,0,1,0,1,0,86.23,86.23,0,0,1,.83-18.44A87.4,87.4,0,0,1,417,362.41a86.19,86.19,0,0,1,7.8-15.61,88.39,88.39,0,0,1,22.68-24.12c.56-.41,1.14-.81,1.71-1.21S449.25,320.26,448.71,320.64Z" transform="translate(-32.87 -129.24)"/><path class="cls-2" d="M406.27,312c.59-6.4,1.52-12.89,4.17-18.75s7.24-11.11,13.31-13.27a13.68,13.68,0,0,1,7.73-.59,8.89,8.89,0,0,1,6,4.71c1.68,3.72,0,8.07-1.9,11.65-5.09,9.35-12.41,17.34-17.49,26.7a64.92,64.92,0,0,0-7.8,29.47c-.29,14.14,4,28,4.78,42.1a6.12,6.12,0,0,1-.72,4c-1.33,1.86-3.27,1.07-3.86-.69-.87-2.55-.73-5.92-1.05-8.6-.73-6.22-1.44-12.44-2-18.67-1.2-12.28-2-24.62-2-37A197.31,197.31,0,0,1,406.27,312Z" transform="translate(-32.87 -129.24)"/><path class="cls-1" d="M425.66,290.12a132.6,132.6,0,0,0-9.33,19.36,137.51,137.51,0,0,0-6.16,20.64,140.5,140.5,0,0,0-2.88,21.41,135.77,135.77,0,0,0,.47,21.53,132.91,132.91,0,0,0,3.85,21.15q.34,1.29.72,2.58a.52.52,0,0,0,.63.37.53.53,0,0,0,.37-.64,131.6,131.6,0,0,1-4.26-21,137.76,137.76,0,0,1,7.28-63.2,131.37,131.37,0,0,1,8.87-19.38c.43-.78.88-1.56,1.33-2.33a.51.51,0,0,0-.89-.49Z" transform="translate(-32.87 -129.24)"/><path class="cls-3" d="M450.2,390.25a23,23,0,0,1-23,23H383.94a23,23,0,0,1-22.76-23Z" transform="translate(-32.87 -129.24)"/><path class="cls-4" d="M450.2,390.25a23,23,0,0,1-23,23H383.94a97,97,0,0,0,18.86-5.8A60.25,60.25,0,0,0,416,399.67c3.24-2.53,7.09-5.7,9-9.46Z" transform="translate(-32.87 -129.24)"/><path class="cls-5" d="M317.51,204s-8.36,43.22-14.77,46c-6.57,2.86-55.05,7.11-55.05,7.11l1.54,11.9s54.18,3.09,60.48-.4,19.46-21.19,19.46-21.19Z" transform="translate(-32.87 -129.24)"/><path class="cls-5" d="M249.18,269s-13,6.92-15,6.16-12.08-13.84-9.48-16.86,22.93-1.2,22.93-1.2Z" transform="translate(-32.87 -129.24)"/><path class="cls-5" d="M246.58,257.44s-6.94-8.28-9.06-7.48,2.54,9.49,2.54,9.49Z" transform="translate(-32.87 -129.24)"/><path class="cls-6" d="M309.22,252.55a5.5,5.5,0,0,0-4.49-2.83.51.51,0,0,0-.5.5.5.5,0,0,0,.5.5,4.49,4.49,0,0,1,3.63,2.34.49.49,0,0,0,.68.18A.5.5,0,0,0,309.22,252.55Z" transform="translate(-32.87 -129.24)"/><path class="cls-6" d="M304.51,251.26c-.35-.54-1.21,0-.86.51a9.47,9.47,0,0,1,1.49,4.39.5.5,0,0,0,.5.5.5.5,0,0,0,.5-.5A10.61,10.61,0,0,0,304.51,251.26Z" transform="translate(-32.87 -129.24)"/><path class="cls-5" d="M419.91,376.62s3.64,25.58,3.13,27.74c-.34,1.44-18.62,11.22-18.62,11.22s-1.91-3.3-.7-6.05,8.15-10.39,8.15-10.39l-3.78-5.25V377.72S414.51,374.31,419.91,376.62Z" transform="translate(-32.87 -129.24)"/><path class="cls-5" d="M282.89,401.62a17,17,0,0,1,1.29,12l-40.91.59s-1.66-4,.6-5.77c1.53-1.2,21.63-7,21.63-7Z" transform="translate(-32.87 -129.24)"/><path class="cls-7" d="M314.77,288.94s-64,8.48-69.37,21.9c-5.62,14.1,17.38,90.44,17.38,90.44s9.05,4.53,21.88-.35c0,0-5.43-67.06-3.52-68.59,2.86-2.28,96.14,17,102.45-28.15Z" transform="translate(-32.87 -129.24)"/><path class="cls-7" d="M383.59,304.19c1.34,35.43-39.13,71.56-36.19,74.75s62.84-5.34,62.84-5.34c4.53,12.4-3.09,22.1-3.09,22.1s-86.77,19.71-95.24,8.64c-9.26-12.1,20.6-110.81,20.6-110.81Z" transform="translate(-32.87 -129.24)"/><path class="cls-8" d="M329,304.53q-3,10.92-6,21.8a.52.52,0,0,0,.36.64.53.53,0,0,0,.64-.37l6-21.81a.52.52,0,1,0-1-.26Z" transform="translate(-32.87 -129.24)"/><path class="cls-8" d="M344.64,378.59a7.91,7.91,0,0,1-6.41-2.61c-.43-.48-1.14.22-.71.7a8.83,8.83,0,0,0,7.12,2.91C345.27,379.55,345.28,378.55,344.64,378.59Z" transform="translate(-32.87 -129.24)"/><path class="cls-8" d="M345.73,377.16a11.28,11.28,0,0,1-5.31-5.75.52.52,0,0,0-.61-.35.51.51,0,0,0-.35.61,12.24,12.24,0,0,0,5.76,6.35C345.8,378.32,346.3,377.45,345.73,377.16Z" transform="translate(-32.87 -129.24)"/><path class="cls-8" d="M278.43,331a12,12,0,0,1-7.38-3.56c-.45-.46-1.16.25-.71.71a13.07,13.07,0,0,0,8.09,3.85C279.07,332.05,279.07,331.05,278.43,331Z" transform="translate(-32.87 -129.24)"/><path class="cls-8" d="M280,329.89a11.2,11.2,0,0,1-4.15-4.56.51.51,0,0,0-.7-.11.5.5,0,0,0-.16.61,12.2,12.2,0,0,0,4.5,4.92.49.49,0,0,0,.68-.18A.51.51,0,0,0,280,329.89Z" transform="translate(-32.87 -129.24)"/><path class="cls-9" d="M317.51,204l-16,34.5s6.46,9.87,24.34,15.74l6.38-33.53Z" transform="translate(-32.87 -129.24)"/><path class="cls-9" d="M383.51,304.17s-21.85,20.07-68.83-15.25c0,0,5.44-8.09,7.57-40.94.95-14.69-6.14-41.66-4.87-44,4.37-8.19,24.09-13.17,29.36-13,3.15.09,18.11,1.77,25.32,11.2,1.9,2.49,3.61,50.41,3.66,51.42C375.82,255.08,383.51,304.17,383.51,304.17Z" transform="translate(-32.87 -129.24)"/><path class="cls-5" d="M372.14,202.15s26.27,35.11,27.25,49.12c1.13,16.15-23.23,60.43-23.23,60.43l-11.37-3.86s14.88-42.09,13.66-56.59c-.17-2.08-3.28-7.68-3.28-7.68Z" transform="translate(-32.87 -129.24)"/><path class="cls-5" d="M376.16,311.7s.52,14.68-1.06,16.17-17.74,4.77-19.32,1.11,9-21.12,9-21.12Z" transform="translate(-32.87 -129.24)"/><path class="cls-5" d="M364.63,309s-10.49,2.59-10.7,4.85,9.64,1.89,9.64,1.89Z" transform="translate(-32.87 -129.24)"/><path class="cls-6" d="M386.51,249.22a11.34,11.34,0,0,0-5.5.74.53.53,0,0,0-.37.64.51.51,0,0,0,.64.36,10.63,10.63,0,0,1,5.23-.7.5.5,0,0,0,.5-.5.5.5,0,0,0-.5-.5Z" transform="translate(-32.87 -129.24)"/><path class="cls-6" d="M386.57,251.9a13.2,13.2,0,0,0-6.6.41.52.52,0,0,0,.27,1,12.22,12.22,0,0,1,6.06-.4C386.93,253,387.2,252,386.57,251.9Z" transform="translate(-32.87 -129.24)"/><path class="cls-10" d="M339.75,147.39a2.29,2.29,0,1,0-3.06-3.17,4.88,4.88,0,0,0-.75-3.15,3.18,3.18,0,0,0-2.83-1.38,2.37,2.37,0,0,0-2.1,2.15c-7.45-3.41-16-3-24.22-2.45-3,.19-6.28.57-8.08,2.91a6.22,6.22,0,0,0-1,5,9.49,9.49,0,0,0,2.4,4.54,2.94,2.94,0,0,0-2.08,3.6,2.91,2.91,0,0,0,1.43,1.82c-.92,1.65-.12,3.72.94,5.29,3,4.36,7.87,7.13,13,8.37s10.49,1.07,15.74.52c4.11-.43,9.08-1.35,11.79-4.85,2.56-3.3,3-8.47,2.12-12.41A16,16,0,0,0,339.75,147.39Z" transform="translate(-32.87 -129.24)"/><path class="cls-5" d="M337.12,159.39c1.17,5,2.85,11.5,4.46,17.61.15.58.32,1.17.46,1.75,2.47,9.28,4.69,17.27,4.69,17.27-2.34,5.77-13.92,6.55-13.89,4.72a8.79,8.79,0,0,0-.74-3.18,10.24,10.24,0,0,0-.5-1.13v-.07a6.33,6.33,0,0,0-2.33-2.64,3.39,3.39,0,0,0-1.7-.13h-.35l-1.12.17-.78.15c-4,.75-9.65,2-12.86-1.62-4.73-5.19-7.18-21.06-7.73-28.77-.32-4.44,2.67-11.06,10.1-13.37C323.82,147.39,334,146,337.12,159.39Z" transform="translate(-32.87 -129.24)"/><path class="cls-10" d="M304.63,160.2a11.29,11.29,0,0,0,8.88,1.44,33,33,0,0,0,8.48-3.47,1.34,1.34,0,0,0,.78,1.73l.13,0a3.52,3.52,0,0,0,2.19-.29c-.06,2,1.72,3.63,3.43,4.69a31.21,31.21,0,0,0,6.28,3,4.84,4.84,0,0,0,3.45.27c1.43-.59,2.08-2.29,2.31-3.85.91-6-2.13-12.11-6.81-15.76s-10.76-5-16.63-4.87A19.11,19.11,0,0,0,306.84,146a10.29,10.29,0,0,0-4.41,11.08A5.61,5.61,0,0,0,304.63,160.2Z" transform="translate(-32.87 -129.24)"/><path class="cls-11" d="M323.51,172c.19.7-.6,1.52-1.75,1.82s-2.24,0-2.43-.71.6-1.51,1.75-1.82S323.35,171.33,323.51,172Z" transform="translate(-32.87 -129.24)"/><path class="cls-11" d="M311.44,175.84c.21.69-.53,1.54-1.68,1.9s-2.24.09-2.45-.6.53-1.54,1.67-1.9S311.22,175.14,311.44,175.84Z" transform="translate(-32.87 -129.24)"/><path class="cls-12" d="M316.69,171.7a1.65,1.65,0,0,1,1.11-1.63,2,2,0,0,1,2,.57c.26.23-.1.62-.36.39a1.56,1.56,0,0,0-1.4-.46,1.1,1.1,0,0,0-.79,1.11.28.28,0,0,1-.56,0Z" transform="translate(-32.87 -129.24)"/><path class="cls-12" d="M309.92,174a2.31,2.31,0,0,1,1.09-1.78,1.76,1.76,0,0,1,1.94.61.27.27,0,0,1,0,.37.26.26,0,0,1-.38,0c-.34-.36-.87-.76-1.39-.5s-.65.89-.77,1.4a.27.27,0,0,1-.35.12A.3.3,0,0,1,309.92,174Z" transform="translate(-32.87 -129.24)"/><path class="cls-13" d="M315,176.63a1.8,1.8,0,0,1,1.11-.27.28.28,0,0,1,.28.26.28.28,0,0,1-.26.28,1.43,1.43,0,0,0-.79.14.44.44,0,0,0-.15.51v.09h0a.38.38,0,0,0,.09.13.86.86,0,0,0,.29.21,2.4,2.4,0,0,0,.83.24.26.26,0,0,1,.2.31h0a.25.25,0,0,1-.31.2h0c-.68-.12-1.53-.39-1.69-1.17A1,1,0,0,1,315,176.63Z" transform="translate(-32.87 -129.24)"/><path class="cls-14" d="M316.33,186.51h0a5.27,5.27,0,0,0,4-.48,5.78,5.78,0,0,0,2-1.71,5,5,0,0,0,.74-1.53,4.73,4.73,0,0,0,.14-1,2.15,2.15,0,0,0-.81-1.91,1.81,1.81,0,0,0-1.39,0l-.19,0a7.29,7.29,0,0,0-1.45.86,10.29,10.29,0,0,1-2.24,1.2,5,5,0,0,1-1.88.34,8.31,8.31,0,0,0-.86-.07.71.71,0,0,0-.47.39,1.67,1.67,0,0,0-.15.93A3.71,3.71,0,0,0,316.33,186.51Z" transform="translate(-32.87 -129.24)"/><path class="cls-15" d="M316.34,186.51a5.27,5.27,0,0,0,4-.48,5.78,5.78,0,0,0,2-1.71,5,5,0,0,0,.74-1.53,10.54,10.54,0,0,0-2.62.3,6.73,6.73,0,0,0-3.09,1.62A4.28,4.28,0,0,0,316.34,186.51Z" transform="translate(-32.87 -129.24)"/><path class="cls-16" d="M314.51,182.68a1.67,1.67,0,0,0,1.58.51,9.1,9.1,0,0,0,3.42-1.21,3.8,3.8,0,0,0,.95-.6,1.61,1.61,0,0,0,.57-1,1.32,1.32,0,0,0-.06-.62l-.19.05a7.29,7.29,0,0,0-1.45.86,10.29,10.29,0,0,1-2.24,1.2,5,5,0,0,1-1.88.34,8.31,8.31,0,0,0-.86-.07A1,1,0,0,0,314.51,182.68Z" transform="translate(-32.87 -129.24)"/><path class="cls-10" d="M312.51,168.17a.43.43,0,0,0-.21-.21,3.46,3.46,0,0,0-4.45,1.88.39.39,0,0,0,0,.3.38.38,0,0,0,.21.22.31.31,0,0,0,.19,0,.41.41,0,0,0,.33-.24,2.69,2.69,0,0,1,1.43-1.44,2.76,2.76,0,0,1,2,0,.39.39,0,0,0,.3,0,.32.32,0,0,0,.21-.21A.39.39,0,0,0,312.51,168.17Z" transform="translate(-32.87 -129.24)"/><path class="cls-10" d="M314.73,167.47a.39.39,0,0,1,0-.3,3.43,3.43,0,0,1,4.62-1.47.55.55,0,0,1,.2.23.39.39,0,0,1,0,.3.33.33,0,0,1-.12.14.43.43,0,0,1-.41,0,2.68,2.68,0,0,0-3.58,1.13.33.33,0,0,1-.23.19.3.3,0,0,1-.29,0A.35.35,0,0,1,314.73,167.47Z" transform="translate(-32.87 -129.24)"/><path class="cls-5" d="M339.83,174.75a4.55,4.55,0,0,0,1.6-1.26,9.06,9.06,0,0,0,1.53-3.32,9.2,9.2,0,0,0,.38-3.87,4.45,4.45,0,0,0-2-3.19,4,4,0,0,0-3.62,0,5.31,5.31,0,0,0-2.51,2.73,8.37,8.37,0,0,0-.54,3.7,7.86,7.86,0,0,0,1.61,4.44,3,3,0,0,0,1.86,1.09A2.92,2.92,0,0,0,339.83,174.75Z" transform="translate(-32.87 -129.24)"/><path class="cls-17" d="M337.6,167.9A5.21,5.21,0,0,1,340,165c.3-.16.59.28.29.45a4.62,4.62,0,0,0-1.85,6.13c.16.3-.29.59-.45.29A5.15,5.15,0,0,1,337.6,167.9Z" transform="translate(-32.87 -129.24)"/><path class="cls-17" d="M337.75,167.59a2.78,2.78,0,0,1,2.89,0,.26.26,0,0,1,.11.35.28.28,0,0,1-.36.12,2.21,2.21,0,0,0-2.35,0C337.75,168.22,337.51,167.77,337.75,167.59Z" transform="translate(-32.87 -129.24)"/><path class="cls-6" d="M339.87,188.84a22.74,22.74,0,0,1-9.34,4c-.63.12-.53,1.11.11,1a23.91,23.91,0,0,0,9.87-4.25.49.49,0,0,0-.06-.7A.52.52,0,0,0,339.87,188.84Z" transform="translate(-32.87 -129.24)"/><path class="cls-9" d="M368.84,198.74s21.31,17.47,30.59,34.15c0,0-5.82,12.9-23.81,16Z" transform="translate(-32.87 -129.24)"/><path class="cls-4" d="M373.16,244.16a32.18,32.18,0,0,1-6.07-12.74c-.14-.63-1.1-.36-1,.27a33.13,33.13,0,0,0,6.36,13.15C372.85,245.37,373.51,244.66,373.16,244.16Z" transform="translate(-32.87 -129.24)"/><path class="cls-4" d="M373.56,255.71a.53.53,0,0,0-.71,0,8.42,8.42,0,0,1-6.34,1.75.5.5,0,0,0-.5.5.5.5,0,0,0,.5.5,9.44,9.44,0,0,0,7.05-2,.51.51,0,0,0,0-.72Z" transform="translate(-32.87 -129.24)"/><path class="cls-4" d="M373.69,258c-1.86,3-5.55,3.67-8.72,4.25-.64.11-.37,1.08.26,1,3.47-.63,7.31-1.51,9.32-4.71A.51.51,0,0,0,373.69,258Z" transform="translate(-32.87 -129.24)"/><path class="cls-4" d="M320.62,231.84a.53.53,0,0,0-.64-.36.51.51,0,0,0-.36.63h0a45.75,45.75,0,0,1,1.84,15.6.5.5,0,0,0,1,0A47.06,47.06,0,0,0,320.62,231.84Z" transform="translate(-32.87 -129.24)"/><path class="cls-5" d="M134.51,362.84a1.68,1.68,0,0,1-1.1,1.1c-1.24.52-3.17.35-4.19.48A25.86,25.86,0,0,0,115,371c-3.52,3.25-6,7.42-8.72,11.4s-5.67,7.91-9.72,10.41-9.54,3.32-13.67.86C76.75,398,69.4,401.18,62,400.41S47.26,394,46.51,386.61a12.37,12.37,0,0,1-11.06-19.86,11.51,11.51,0,0,1,1.75-1.81,12.73,12.73,0,0,1,11.13-2.61c6.18,1.58,10.11,7.51,15.69,10.51,7.55,4.06,17,2.26,24.75-1.33s14.74-8.85,22.74-11.87a35.1,35.1,0,0,1,7.35-1.88A23.75,23.75,0,0,1,132,359.33C133.3,359.92,135,361.14,134.51,362.84Z" transform="translate(-32.87 -129.24)"/><path class="cls-4" d="M133.4,363.91c-1.24.52-3.17.35-4.19.48A25.86,25.86,0,0,0,114.94,371c-3.52,3.25-6,7.42-8.72,11.4s-5.66,7.94-9.71,10.44-9.54,3.32-13.67.86C76.75,398,69.4,401.18,62,400.41S47.26,394,46.51,386.61a12.37,12.37,0,0,1-11.06-19.86,11.51,11.51,0,0,1,1.75-1.81L37,366.78a11.51,11.51,0,0,0,14.48,9.49c-1.51,4.37,1.12,9.38,5.05,11.83s8.81,2.84,13.44,2.58c4.06-.23,8.74-1.34,10.46-5,2.41,3.51,7.57,3.89,11.59,2.49,5.77-2,10.15-6.66,14.12-11.29s7.94-9.52,13.37-12.31C123.82,362.37,129.26,361.84,133.4,363.91Z" transform="translate(-32.87 -129.24)"/><path class="cls-14" d="M215,335.44c.07-1.58.26-3.15.36-4.73a1.72,1.72,0,0,0-.3-1.33,1.16,1.16,0,0,0-1-.23,3,3,0,0,0-1,.42,21,21,0,0,0-7.76,7.3,2.82,2.82,0,0,0-.48,1.36,2.08,2.08,0,0,0,.79,1.57,4.32,4.32,0,0,0,1.62.8,11.51,11.51,0,0,0,5.31.35c.81-.14,2.42-.5,2.47-1.55,0-.61-.08-1.25-.09-1.86S215,336.14,215,335.44Z" transform="translate(-32.87 -129.24)"/><path class="cls-4" d="M208.33,338.39c0-.11,4.73-8.77,6.28-8.46.83.17-1.31,5.22-.26,8.77Z" transform="translate(-32.87 -129.24)"/><path class="cls-14" d="M139.42,411.7a6.7,6.7,0,0,0,3.7,3,16.37,16.37,0,0,0,4.76.79,5.74,5.74,0,0,0,3.67-.68,3.17,3.17,0,0,0,1.19-3.32,3.37,3.37,0,0,0-2.65-2.36,4.87,4.87,0,0,1-2-.37c-.69-.42-1-1.37-1.67-1.75a2.54,2.54,0,0,0-1.25-.2,38.46,38.46,0,0,0-5.25.44c-.33.05-2.38.25-2.41.55,0,.13.5.69.59.84a8.71,8.71,0,0,1,.42.94A15.87,15.87,0,0,0,139.42,411.7Z" transform="translate(-32.87 -129.24)"/><path class="cls-14" d="M208.07,397a12.52,12.52,0,0,1-5.92,8.26c-1.6.93-3.39,1.48-5,2.35a7.2,7.2,0,0,0-3.74,3.91,9.76,9.76,0,0,1-.85,2.7,3.33,3.33,0,0,1-2.3,1.24,5.63,5.63,0,0,1-6-4.1c-.57-2.28.41-4.7,1.81-6.59,2.89-3.93,7.49-6.29,10.6-10,1.86-2.24,3.13-4.91,4.82-7.28a15.71,15.71,0,0,1,2.84-3.09,11.39,11.39,0,0,1,1.76-1.16c.5-.26,2-2.61,2.61-2.57,0,0-.53,3.16-.58,3.67a17.52,17.52,0,0,0-.1,2.4c0,1.62.2,3.24.31,4.87A20.7,20.7,0,0,1,208.07,397Z" transform="translate(-32.87 -129.24)"/><path class="cls-5" d="M231.29,357a18.13,18.13,0,0,1-1.77,5.51,12.89,12.89,0,0,1-.77,1.36,18.18,18.18,0,0,1-5.62,5.79c-3.39,2.19-7.48,3.24-10.57,5.84a17.88,17.88,0,0,0-5.51,9.66,53.63,53.63,0,0,0-1,11.23,9,9,0,0,1-2,5.59,20.28,20.28,0,0,1-4.73,3.83,4.44,4.44,0,0,0,3.33,3.16c.91.21,1.94.17,2.64.79a3.23,3.23,0,0,1,.8,2.35,3.32,3.32,0,0,1-.64,2.38,3.62,3.62,0,0,1-2.29.81,14.45,14.45,0,0,1-5.71-.1,9.77,9.77,0,0,1-4.54-3.07,26.45,26.45,0,0,1-3-4.42c-17.87,4.29-37,.72-39.63-1.15a26.32,26.32,0,0,1-13.15,2.31c-5.48-.33-11-2.37-16.34-1.13a5,5,0,0,1,3.86,1.72,3.39,3.39,0,0,1,.17,4.06c-1,1.31-2.92,1.46-4.58,1.5a14.5,14.5,0,0,1-4.64-.38,5,5,0,0,1-3.38-3c-.45-1.38,0-2.9-.28-4.33-.21-1.27-.9-2.42-1-3.7-.15-2.36,1.79-4.32,3.79-5.59s4.28-2.3,5.6-4.26c-3.32-4.35-4.32-11-2.86-16.23a25.24,25.24,0,0,1,9.36-13.14,31.75,31.75,0,0,1,26.49-5.31c7.9,2,15.16,7.13,23.32,6.86,2.62-.09,5.24-1.31,7.58-2.52a11.17,11.17,0,0,0,5.44-5.51c.77-1.89.82-4,1.28-6a30.2,30.2,0,0,1,3.33-7.75q3.49-6.47,7-12.91c.41-.76,1.19-1.64,2-1.23a1.71,1.71,0,0,1,.64,1c.83,2.57,2.11,4.93,2.94,7.5a10.19,10.19,0,0,1,9.85.59c3.63,2.37,5.43,6.87,9.06,9.23,1.58,1,3.51,1.66,4.64,3.18A7.27,7.27,0,0,1,231.29,357Z" transform="translate(-32.87 -129.24)"/><path class="cls-10" d="M219.41,347a.67.67,0,0,0-.89.23,7,7,0,0,1-4.35,3.73.67.67,0,0,0-.45.8.65.65,0,0,0,.8.45,8.33,8.33,0,0,0,5.12-4.32A.67.67,0,0,0,219.41,347Z" transform="translate(-32.87 -129.24)"/><path class="cls-4" d="M229.51,362.48a12.89,12.89,0,0,1-.77,1.36,6.27,6.27,0,0,1-5.08-1.82.64.64,0,0,1,.91-.91,5,5,0,0,0,4.6,1.37A.65.65,0,0,1,229.51,362.48Z" transform="translate(-32.87 -129.24)"/><path class="cls-10" d="M228.43,350.53a1.71,1.71,0,0,0-1,.5,1.38,1.38,0,0,0-.23.76,2.66,2.66,0,0,0,1,2.15,3.62,3.62,0,0,0,2.27.83,1.67,1.67,0,0,0,1-.23,1.42,1.42,0,0,0,.49-.86,3.17,3.17,0,0,0-.63-2.43,2.93,2.93,0,0,0-.75-.74,1.55,1.55,0,0,0-1-.27c-.17,0-.33.14-.51.18A4.76,4.76,0,0,1,228.43,350.53Z" transform="translate(-32.87 -129.24)"/><path class="cls-16" d="M220.88,354.53a16.48,16.48,0,0,0-9.67,7.38.33.33,0,0,0,.19.43.33.33,0,0,0,.37-.1,15.76,15.76,0,0,1,9.28-7.08.32.32,0,0,0,.17-.43A.35.35,0,0,0,220.88,354.53Z" transform="translate(-32.87 -129.24)"/><path class="cls-16" d="M221.12,355.64a14.31,14.31,0,0,0-3.11,3.2,12.14,12.14,0,0,0-1.46,4.37c-.07.41.56.58.63.17a11.25,11.25,0,0,1,1.39-4.21,13.61,13.61,0,0,1,3-3.06C221.9,355.84,221.44,355.37,221.12,355.64Z" transform="translate(-32.87 -129.24)"/><path class="cls-16" d="M222.08,356.32a12,12,0,0,0-.13,9.77c.16.38.72.05.56-.33a11.33,11.33,0,0,1,.13-9.11C222.81,356.28,222.26,356,222.08,356.32Z" transform="translate(-32.87 -129.24)"/><path class="cls-4" d="M211.76,369.89a17.49,17.49,0,0,1-4.54,2.2,16.39,16.39,0,0,1-2.39.6c-.78.14-2,.27-2.28-.74a.33.33,0,0,0-.41-.22l-.06,0a10.47,10.47,0,0,1-4.26,1,5.06,5.06,0,0,1-2.08-.22,1.19,1.19,0,0,1-.72-.65.58.58,0,0,1,.3-.77l.1,0a.31.31,0,0,0,.22-.39.32.32,0,0,0-.39-.23h0a10.57,10.57,0,0,1-4.74.39,3,3,0,0,1-1.89-.7c-.57-.68.2-1.48.67-1.95a13.92,13.92,0,0,0,4-7.21c.08-.41-.54-.58-.63-.18a13,13,0,0,1-3.48,6.57c-.73.74-1.87,1.72-1.28,2.89.51,1,2,1.16,2.93,1.28a11.19,11.19,0,0,0,3.56-.15,1.3,1.3,0,0,0,.08.87,2.34,2.34,0,0,0,2.09,1.15,10.9,10.9,0,0,0,5.49-.92c.72,1.61,3.4.81,4.68.45a18.44,18.44,0,0,0,5.37-2.47C212.44,370.22,212.11,369.65,211.76,369.89Z" transform="translate(-32.87 -129.24)"/><path class="cls-4" d="M206.26,373.61a8.44,8.44,0,0,1-2.94,2,7.08,7.08,0,0,1-1.63.47,1.43,1.43,0,0,1-1,0,.48.48,0,0,1-.25-.64.34.34,0,0,0-.16-.45.39.39,0,0,0-.21,0,19.11,19.11,0,0,1-4.78,1,2.78,2.78,0,0,1-2.14-.54c-.49-.48-.63-1.63.28-1.75.4-.05.41-.7,0-.64a1.51,1.51,0,0,0-1.32,1.68h0a2.21,2.21,0,0,0,1.7,1.77,7.34,7.34,0,0,0,3.06-.07,20.32,20.32,0,0,0,2.88-.65,1.16,1.16,0,0,0,.58.88,3,3,0,0,0,2.26,0,9.41,9.41,0,0,0,4.09-2.41.37.37,0,0,0,.1-.52.38.38,0,0,0-.52-.11Z" transform="translate(-32.87 -129.24)"/><path class="cls-4" d="M157.67,399.2a14.17,14.17,0,0,1-2.9,3.76,20.07,20.07,0,0,1-4.26,2.88c-.37.2,0,.76.32.56a21.06,21.06,0,0,0,4.43-3,14.83,14.83,0,0,0,3-3.9C158.43,399.16,157.87,398.84,157.67,399.2Z" transform="translate(-32.87 -129.24)"/><path class="cls-4" d="M189.59,407a45.32,45.32,0,0,1-3.51-9.52.32.32,0,0,0-.4-.22.31.31,0,0,0-.22.39h0a45.45,45.45,0,0,0,3.57,9.67C189.22,407.71,189.78,407.38,189.59,407Z" transform="translate(-32.87 -129.24)"/><path class="cls-4" d="M199.51,405.07a12.61,12.61,0,0,1,0-7.1.33.33,0,0,0-.63-.17,13.44,13.44,0,0,0,0,7.44.32.32,0,0,0,.43.17A.31.31,0,0,0,199.51,405.07Z" transform="translate(-32.87 -129.24)"/><path class="cls-4" d="M123.17,386.51a12.3,12.3,0,0,1-2.77,6.64c-.27.32.19.78.46.46a13,13,0,0,0,3-7.1C123.85,386.1,123.21,386.1,123.17,386.51Z" transform="translate(-32.87 -129.24)"/><path class="cls-4" d="M202.9,330.92a68.76,68.76,0,0,1,3.17,7.94,8,8,0,0,0-3.61,2.45S201.25,331.33,202.9,330.92Z" transform="translate(-32.87 -129.24)"/><path class="cls-2" d="M412.51,129.24a30.85,30.85,0,1,0,30.85,30.85A30.85,30.85,0,0,0,412.51,129.24Zm0,60.93a30.08,30.08,0,1,1,30.08-30.08h0A30.1,30.1,0,0,1,412.51,190.17Z" transform="translate(-32.87 -129.24)"/><polygon class="cls-2" points="390.19 10.94 379.5 29.53 377.67 27.47 376.51 28.5 378.69 30.95 375.89 35.81 377.25 36.58 379.77 32.16 389.55 43.1 390.7 42.07 380.6 30.75 391.52 11.71 390.19 10.94"/><rect class="cls-2" x="379.05" y="2.11" width="1.19" height="6.13"/><rect class="cls-2" x="402.25" y="30.25" width="6.13" height="1.19"/><rect class="cls-2" x="379.05" y="53.45" width="1.19" height="6.13"/><rect class="cls-2" x="350.91" y="30.25" width="6.13" height="1.19"/></g></svg>